<?xml version="1.0" encoding="UTF-8"?>
<svg id="Layer_1" data-name="Layer 1" xmlns="http://www.w3.org/2000/svg" viewBox="0 0 1000 1000">
  <defs>
    <style>
      .cls-1 {
        fill: #d6b0ff;
      }

      .cls-2 {
        fill: #9852d7;
      }
    </style>
  </defs>
  <g id="_100_3d_cube_printing_shape" data-name="100, 3d, cube, printing, shape">
    <g>
      <path class="cls-1" d="M500.36,698.34v207.33l-351.4-203.82v-404.11l173.95,114.21c-14.05,26.36-21.09,56.23-21.09,89.61,1.77,107.18,89.62,196.78,198.54,196.78h0Z"/>
      <path class="cls-1" d="M851.77,297.75v404.11l-351.4,203.82v-207.33c108.94,0,196.79-87.85,196.79-198.54,0-31.62-7.02-61.5-21.09-89.61l175.7-112.45Z"/>
      <path class="cls-1" d="M851.77,297.75l-173.93,114.21c-33.39-65.01-100.15-108.94-177.47-108.94s-144.06,43.93-177.45,108.94l-173.95-114.21h0L500.36,95.69l351.4,202.06Z"/>
      <path class="cls-2" d="M786.77,16.62c12.61,0,22.84,10.23,22.84,22.84s-10.23,22.85-22.84,22.85-22.85-10.23-22.85-22.85,10.23-22.84,22.85-22.84Z"/>
      <path class="cls-2" d="M786.77,81.64c12.61,0,22.84,10.23,22.84,22.84s-10.23,22.84-22.84,22.84-22.85-10.23-22.85-22.84,10.23-22.84,22.85-22.84Z"/>
      <path class="cls-2" d="M786.77,148.4c12.61,0,22.84,10.23,22.84,22.84s-10.23,22.85-22.84,22.85-22.85-10.23-22.85-22.85,10.23-22.84,22.85-22.84Z"/>
      <path class="cls-2" d="M786.77,807.28c12.61,0,22.84,10.23,22.84,22.84s-10.23,22.85-22.84,22.85-22.85-10.23-22.85-22.85,10.23-22.84,22.85-22.84Z"/>
      <path class="cls-2" d="M786.77,872.29c12.61,0,22.84,10.23,22.84,22.84s-10.23,22.84-22.84,22.84-22.85-10.23-22.85-22.84,10.23-22.84,22.85-22.84Z"/>
      <path class="cls-2" d="M786.77,939.06c12.61,0,22.84,10.23,22.84,22.84s-10.23,22.85-22.84,22.85-22.85-10.23-22.85-22.85,10.23-22.84,22.85-22.84Z"/>
      <path class="cls-2" d="M215.74,16.62c12.61,0,22.84,10.23,22.84,22.84s-10.23,22.85-22.84,22.85-22.86-10.23-22.86-22.85,10.23-22.84,22.86-22.84Z"/>
      <path class="cls-2" d="M215.74,81.64c12.61,0,22.84,10.23,22.84,22.84s-10.23,22.84-22.84,22.84-22.86-10.23-22.86-22.84,10.23-22.84,22.86-22.84Z"/>
      <path class="cls-2" d="M215.74,148.4c12.61,0,22.84,10.23,22.84,22.84s-10.23,22.85-22.84,22.85-22.86-10.23-22.86-22.85,10.23-22.84,22.86-22.84Z"/>
      <path class="cls-2" d="M215.74,807.28c12.61,0,22.84,10.23,22.84,22.84s-10.23,22.85-22.84,22.85-22.86-10.23-22.86-22.85,10.23-22.84,22.86-22.84Z"/>
      <path class="cls-2" d="M215.74,872.29c12.61,0,22.84,10.23,22.84,22.84s-10.23,22.84-22.84,22.84-22.86-10.23-22.86-22.84,10.23-22.84,22.86-22.84Z"/>
      <path class="cls-2" d="M215.74,939.06c12.61,0,22.84,10.23,22.84,22.84s-10.23,22.85-22.84,22.85-22.86-10.23-22.86-22.85,10.23-22.84,22.86-22.84Z"/>
      <path class="cls-2" d="M500.36,719.43h0c-121.22,0-219.63-98.39-219.63-219.63,0-35.14,7.03-68.52,22.86-98.39,36.89-73.79,112.44-121.23,196.77-121.23s158.13,45.68,196.79,121.23c15.82,31.63,22.84,63.25,22.84,98.39,0,121.23-98.39,219.63-219.63,219.63ZM500.36,324.1c-66.76,0-126.49,36.9-156.36,96.64-12.3,24.6-19.34,50.95-19.34,79.07,0,96.64,79.07,175.7,175.7,175.7h0c96.64,0,175.7-79.07,175.7-175.7,0-28.11-7.02-54.47-19.32-79.07-29.87-59.74-89.6-96.64-156.38-96.64Z"/>
      <path class="cls-2" d="M500.36,926.75c-3.5,0-7.02-1.75-10.54-3.51l-351.4-202.06c-7.03-3.52-10.54-10.54-10.54-19.33v-404.11c0-7.03,3.5-15.81,10.54-19.33L489.83,76.36c7.04-3.51,15.82-3.51,21.09,0l351.4,202.06c7.02,3.52,10.54,10.54,10.54,19.33v404.11c0,7.03-3.52,15.81-10.54,19.33l-351.4,202.06c-1.77,3.51-7.04,3.51-10.55,3.51ZM171.82,689.56l328.55,189.76,328.56-189.76v-379.51L500.36,120.29l-328.55,189.76v379.51Z"/>
      <path class="cls-2" d="M676.07,434.79c-7.02,0-14.05-3.51-17.57-10.54-7.02-10.54-3.5-24.61,7.03-29.87l175.7-114.21c10.54-7.03,24.61-3.52,29.87,7.03,7.02,10.54,3.52,24.6-7.04,29.87l-175.7,114.21c-3.52,1.76-8.79,3.51-12.3,3.51Z"/>
      <path class="cls-2" d="M324.66,434.79c-3.5,0-8.79-1.75-12.29-3.51l-175.7-114.21c-10.55-7.03-14.07-19.33-7.04-29.87,7.04-10.54,19.32-14.05,29.87-7.03h0l175.7,114.21c10.54,7.03,12.3,21.09,7.02,29.87-3.5,5.27-10.54,10.54-17.57,10.54Z"/>
      <path class="cls-2" d="M500.36,926.75c-12.29,0-22.84-10.54-22.84-22.84v-205.57c0-12.29,10.55-22.84,22.84-22.84s22.86,10.54,22.86,22.84v207.33c0,12.29-10.55,21.08-22.86,21.08Z"/>
      <path class="cls-2" d="M939.62,280.18c-12.29,0-22.84-10.54-22.84-22.84v-43.93h-43.93c-12.3,0-22.84-10.54-22.84-22.85s10.54-22.84,22.84-22.84h66.76c12.3,0,22.85,10.54,22.85,22.84v66.77c0,12.29-10.55,22.84-22.85,22.84Z"/>
      <path class="cls-2" d="M61.11,280.18c-12.29,0-22.84-10.54-22.84-22.84v-66.77c0-12.29,10.55-22.84,22.84-22.84h66.78c12.29,0,22.84,10.54,22.84,22.84s-10.55,22.85-22.84,22.85h-43.93v43.93c0,12.29-10.55,22.84-22.86,22.84Z"/>
      <path class="cls-2" d="M127.89,830.12H61.11c-12.29,0-22.84-10.54-22.84-22.84v-66.76c0-12.3,10.55-22.85,22.84-22.85s22.86,10.54,22.86,22.85v43.93h43.93c12.29,0,22.84,10.54,22.84,22.84-1.77,12.3-12.3,22.84-22.84,22.84Z"/>
      <path class="cls-2" d="M939.62,830.12h-66.76c-12.3,0-22.84-10.54-22.84-22.84s10.54-22.84,22.84-22.84h43.93v-43.93c0-12.3,10.55-22.85,22.84-22.85s22.85,10.54,22.85,22.85v66.76c0,12.3-10.55,22.84-22.85,22.84Z"/>
      <path class="cls-2" d="M423.07,522.64c-12.3,0-22.84-10.54-22.84-22.84s10.54-22.84,22.84-22.84c3.52,0,5.27-1.76,7.02-3.52,1.77-1.76,3.52-3.52,3.52-7.03,0-5.28-5.27-10.54-10.54-10.54h-33.39c-12.3,0-22.84-10.54-22.84-22.84s10.54-22.85,22.84-22.85h33.39c29.87,0,54.46,24.6,54.46,54.47,0,14.05-5.27,28.11-15.8,38.66-10.55,12.29-22.86,19.32-38.66,19.32Z"/>
      <path class="cls-2" d="M423.07,587.65h-33.39c-12.3,0-22.84-10.54-22.84-22.84s10.54-22.85,22.84-22.85h33.39c3.52,0,5.27-1.76,7.02-3.51,1.77-1.76,3.52-3.52,3.52-7.04,0-5.27-5.27-10.54-10.54-10.54h-15.82c-12.3,0-22.84-10.54-22.84-22.85s10.54-22.84,22.84-22.84h15.82c29.87,0,54.46,24.6,54.46,54.47,0,14.05-5.27,28.11-15.8,38.65-10.55,14.06-22.86,19.33-38.66,19.33Z"/>
      <path class="cls-2" d="M544.29,587.65h-22.84c-12.3,0-22.84-10.54-22.84-22.84v-131.78c0-12.3,10.54-22.85,22.84-22.85h22.84c49.21,0,87.85,38.66,87.85,87.85,0,22.85-8.79,45.68-26.36,61.5-17.57,15.81-38.64,28.11-61.5,28.11ZM544.29,455.88v87.85c12.3,0,22.86-5.27,31.64-12.3,8.79-8.79,12.29-19.32,12.29-31.62,0-24.6-19.32-43.93-43.93-43.93Z"/>
    </g>
  </g>
</svg>