<?xml version="1.0" encoding="UTF-8"?>
<svg id="Layer_1" data-name="Layer 1" xmlns="http://www.w3.org/2000/svg" viewBox="0 0 1000 1000">
  <defs>
    <style>
      .cls-1 {
        fill: #9852d7;
      }
    </style>
  </defs>
  <g id="_542_Actor_Artist_Celebrity_Film_Artist_Professional_Artist" data-name="542, Actor, Artist, Celebrity, Film Artist, Professional Artist">
    <g>
      <path class="cls-1" d="M967.7,987.31H33c-11.38,0-21.12-9.76-21.12-21.14v-81.27c0-11.38,9.74-21.14,21.12-21.14h61.78c11.38,0,21.12,9.76,21.12,21.14s-9.74,21.12-21.12,21.12h-42.28v40.64h894.05v-40.64h-40.64c-11.38,0-21.12-9.74-21.12-21.12s9.74-21.14,21.12-21.14h61.78c11.38,0,21.12,9.76,21.12,21.14v81.27c-1.62,11.38-11.38,21.14-21.12,21.14Z"/>
      <path class="cls-1" d="M905.92,906.02H93.15c-11.38,0-21.14-9.74-21.14-21.12V33.11c0-11.38,9.76-21.12,21.14-21.12h812.77c11.38,0,21.14,9.75,21.14,21.12v853.41c0,9.76-9.76,19.5-21.14,19.5ZM114.29,865.39h772.12V52.61H114.29v812.78Z"/>
      <path class="cls-1" d="M743.38,906.02h-3.25c-11.39-1.62-17.89-12.99-16.26-24.37l79.64-395.01c-95.9-82.9-126.78-251.96-136.54-321.86-14.63,4.88-27.63,6.5-40.64,6.5-40.63,0-71.51-19.51-74.77-21.12-1.62-1.63-61.77-37.39-95.9-3.26-39.01,39.01-87.78,27.63-118.67,16.26-9.76,68.28-40.64,240.58-136.54,323.49l74.77,395.01c1.62,11.38-4.88,21.12-16.26,24.37-11.38,1.63-21.14-4.86-24.39-16.24l-81.27-406.39c-1.63-8.13,1.62-16.26,8.13-19.5,113.79-86.15,133.29-328.37,134.91-331.62,0-6.5,4.88-13.01,11.39-16.26,6.5-3.25,14.63-3.25,19.49,1.63,0,0,61.78,37.38,95.91,3.25,58.52-58.52,143.05-4.88,147.92-3.25h0c1.63,1.62,52.02,32.51,99.16,0,6.51-4.88,13.01-4.88,21.14-1.63,6.5,3.25,11.38,9.76,11.38,16.26,0,1.63,21.14,245.46,134.93,331.62,6.5,4.86,9.74,12.99,8.13,19.5l-81.29,406.39c-3.25,9.74-11.38,16.24-21.12,16.24Z"/>
      <path class="cls-1" d="M580.82,906.02c-34.13,0-61.77-27.63-61.77-61.77v-40.64c0-4.87-1.63-9.75-6.51-14.63-4.86-4.88-8.13-4.88-12.99-4.88-11.38,0-21.14,9.76-21.14,21.14v40.64c0,16.24-6.5,30.88-17.87,43.89-11.39,11.38-27.63,17.87-43.89,17.87-34.15,0-61.78-27.63-61.78-61.77v-300.73l-66.65-66.65c-24.37-24.39-24.37-61.77,0-86.15,11.39-11.38,27.63-17.89,43.89-17.89s30.88,6.51,43.89,17.89l66.65,66.65h108.91l66.65-66.65c11.39-11.38,26.02-17.89,43.89-17.89s30.9,6.51,43.89,17.89c24.39,24.39,24.39,61.77,0,86.15l-63.4,63.4v302.35c0,16.26-6.5,30.88-17.87,43.89-13.01,11.38-27.63,17.87-43.89,17.87ZM499.54,743.48c16.24,0,30.88,6.5,43.89,17.87,11.38,11.38,17.87,27.63,17.87,43.89v40.64c0,11.38,9.74,21.12,21.14,21.12,4.87,0,9.75-1.62,14.63-6.5,3.25-3.25,6.5-9.76,6.5-14.63v-312.11c0-4.88,1.63-9.76,6.51-14.63l69.89-69.91c8.13-8.11,8.13-21.12,0-29.25-3.25-3.25-8.13-6.5-14.64-6.5s-9.74,1.62-14.62,6.5l-71.53,71.53c-3.25,3.25-9.74,6.5-14.63,6.5h-126.8c-4.86,0-9.74-1.62-14.62-6.5l-71.53-71.53c-3.25-3.25-8.13-6.5-14.63-6.5-4.88,0-9.76,1.62-14.62,6.5-8.13,8.13-8.13,21.14,0,29.25l71.53,71.53c3.25,3.25,6.5,9.76,6.5,14.64v308.85c0,11.38,9.75,21.14,21.12,21.14,4.88,0,9.76-1.63,14.64-6.51,3.25-3.25,6.5-9.74,6.5-14.62v-40.64c-3.25-32.5,22.75-60.13,56.9-60.13Z"/>
      <path class="cls-1" d="M499.54,439.5c-45.52,0-81.29-35.76-81.29-81.27s35.76-81.29,81.29-81.29,81.27,35.76,81.27,81.29-35.76,81.27-81.27,81.27ZM499.54,317.58c-22.77,0-40.64,17.87-40.64,40.64s17.87,40.63,40.64,40.63,40.63-17.87,40.63-40.63-17.87-40.64-40.63-40.64Z"/>
    </g>
  </g>
</svg>