<?xml version="1.0" encoding="UTF-8"?>
<svg id="Layer_1" data-name="Layer 1" xmlns="http://www.w3.org/2000/svg" viewBox="0 0 1000 1000">
  <defs>
    <style>
      .cls-1 {
        fill: #9852d7;
      }
    </style>
  </defs>
  <g id="_529_Camera_Cinema_Film_Movie_Production" data-name="529, Camera, Cinema, Film, Movie, Production">
    <g>
      <path class="cls-1" d="M894.39,87.02c11.06,0,20.54,9.48,20.54,20.54s-9.49,20.54-20.54,20.54-20.54-9.48-20.54-20.54c1.58-12.64,9.48-20.54,20.54-20.54Z"/>
      <path class="cls-1" d="M894.39,876.97c11.06,0,20.54,9.47,20.54,20.53s-9.49,20.54-20.54,20.54-20.54-9.49-20.54-20.54c1.58-12.63,9.48-20.53,20.54-20.53Z"/>
      <path class="cls-1" d="M796.44,87.02c11.06,0,20.54,9.48,20.54,20.54s-9.48,20.54-20.54,20.54-20.54-9.48-20.54-20.54c0-12.64,9.48-20.54,20.54-20.54Z"/>
      <path class="cls-1" d="M796.44,876.97c11.06,0,20.54,9.47,20.54,20.53s-9.48,20.54-20.54,20.54-20.54-9.49-20.54-20.54c0-12.63,9.48-20.53,20.54-20.53Z"/>
      <path class="cls-1" d="M696.91,87.02c11.06,0,20.54,9.48,20.54,20.54s-9.48,20.54-20.54,20.54-20.54-9.48-20.54-20.54c1.58-12.64,9.48-20.54,20.54-20.54Z"/>
      <path class="cls-1" d="M696.91,876.97c11.06,0,20.54,9.47,20.54,20.53s-9.48,20.54-20.54,20.54-20.54-9.49-20.54-20.54c1.58-12.63,9.48-20.53,20.54-20.53Z"/>
      <path class="cls-1" d="M598.95,87.02c11.06,0,20.54,9.48,20.54,20.54s-9.48,20.54-20.54,20.54-20.54-9.48-20.54-20.54c0-12.64,9.48-20.54,20.54-20.54Z"/>
      <path class="cls-1" d="M598.95,876.97c11.06,0,20.54,9.47,20.54,20.53s-9.48,20.54-20.54,20.54-20.54-9.49-20.54-20.54c0-12.63,9.48-20.53,20.54-20.53Z"/>
      <path class="cls-1" d="M499.42,87.02c11.06,0,20.54,9.48,20.54,20.54s-9.48,20.54-20.54,20.54-20.54-9.48-20.54-20.54c1.58-12.64,9.48-20.54,20.54-20.54Z"/>
      <path class="cls-1" d="M499.42,876.97c11.06,0,20.54,9.47,20.54,20.53s-9.48,20.54-20.54,20.54-20.54-9.49-20.54-20.54c1.58-12.63,9.48-20.53,20.54-20.53Z"/>
      <path class="cls-1" d="M401.47,87.02c11.06,0,20.54,9.48,20.54,20.54s-9.48,20.54-20.54,20.54-20.54-11.06-20.54-22.12,9.48-18.96,20.54-18.96Z"/>
      <path class="cls-1" d="M401.47,876.97c11.06,0,20.54,9.47,20.54,20.53s-9.48,20.54-20.54,20.54-20.54-11.06-20.54-22.12,9.48-18.96,20.54-18.96Z"/>
      <path class="cls-1" d="M301.93,87.02c11.06,0,20.54,9.48,20.54,20.54s-9.48,20.54-20.54,20.54-20.54-9.48-20.54-20.54c1.58-12.64,9.48-20.54,20.54-20.54Z"/>
      <path class="cls-1" d="M301.93,876.97c11.06,0,20.54,9.47,20.54,20.53s-9.48,20.54-20.54,20.54-20.54-9.49-20.54-20.54c1.58-12.63,9.48-20.53,20.54-20.53Z"/>
      <path class="cls-1" d="M203.98,87.02c11.06,0,20.54,9.48,20.54,20.54s-9.48,20.54-20.54,20.54-20.54-9.48-20.54-20.54c0-12.64,9.48-20.54,20.54-20.54Z"/>
      <path class="cls-1" d="M203.98,876.97c11.06,0,20.54,9.47,20.54,20.53s-9.48,20.54-20.54,20.54-20.54-9.49-20.54-20.54c0-12.63,9.48-20.53,20.54-20.53Z"/>
      <path class="cls-1" d="M104.44,87.02c11.07,0,20.54,9.48,20.54,20.54s-9.48,20.54-20.54,20.54-20.54-9.48-20.54-20.54c1.58-12.64,9.48-20.54,20.54-20.54Z"/>
      <path class="cls-1" d="M104.44,876.97c11.07,0,20.54,9.47,20.54,20.53s-9.48,20.54-20.54,20.54-20.54-9.49-20.54-20.54c1.58-12.63,9.48-20.53,20.54-20.53Z"/>
      <path class="cls-1" d="M954.43,184.97H45.99c-11.06,0-20.54-9.49-20.54-20.54s9.48-20.54,20.54-20.54h908.44c11.06,0,20.54,9.49,20.54,20.54-1.58,11.06-11.06,20.54-20.54,20.54Z"/>
      <path class="cls-1" d="M954.43,66.47H45.99c-11.06,0-20.54-9.48-20.54-20.54s9.48-20.54,20.54-20.54h908.44c11.06,0,20.54,9.48,20.54,20.54-1.58,11.06-11.06,20.54-20.54,20.54Z"/>
      <path class="cls-1" d="M954.43,974.92H45.99c-11.06,0-20.54-9.49-20.54-20.54s9.48-20.53,20.54-20.53h908.44c11.06,0,20.54,9.47,20.54,20.53-1.58,11.06-11.06,20.54-20.54,20.54Z"/>
      <path class="cls-1" d="M954.43,856.42H45.99c-11.06,0-20.54-9.47-20.54-20.54s9.48-20.53,20.54-20.53h908.44c11.06,0,20.54,9.47,20.54,20.53-1.58,11.07-11.06,20.54-20.54,20.54Z"/>
      <path class="cls-1" d="M143.94,856.42c-11.06,0-20.54-9.47-20.54-20.54V166.02c0-11.06,9.49-20.55,20.54-20.55s20.54,9.49,20.54,20.55v671.45c0,9.49-9.48,18.96-20.54,18.96Z"/>
      <path class="cls-1" d="M854.9,856.42c-11.06,0-20.54-9.47-20.54-20.54V166.02c0-11.06,9.48-20.55,20.54-20.55s20.54,9.49,20.54,20.55v671.45c0,9.49-9.48,18.96-20.54,18.96Z"/>
      <path class="cls-1" d="M380.93,679.47c-3.16,0-6.32-1.57-9.48-3.16-6.32-3.16-9.48-9.47-9.48-17.37v-315.99c0-6.31,3.16-14.22,9.48-17.37,6.31-3.16,14.21-3.16,18.96,0l276.48,157.99c6.32,3.16,9.48,9.47,9.48,17.37s-3.16,14.21-9.48,17.37l-276.48,157.99c-3.16,1.59-6.32,3.16-9.48,3.16ZM401.47,377.71v248.04l216.45-124.81-216.45-123.24Z"/>
    </g>
  </g>
</svg>