<?xml version="1.0" encoding="UTF-8"?>
<svg id="Layer_1" data-name="Layer 1" xmlns="http://www.w3.org/2000/svg" viewBox="0 0 1000 1000">
  <defs>
    <style>
      .cls-1 {
        fill: #fff;
      }

      .cls-2 {
        fill: #d6b0ff;
      }

      .cls-3 {
        fill: #9852d7;
      }
    </style>
  </defs>
  <g id="B596_Gallery_Media_Photos" data-name="B596, Gallery, Media, Photos">
    <g>
      <path class="cls-2" d="M36.46,42.56v698.34h925.89V42.56H36.46Z"/>
      <polygon class="cls-2" points="962.34 721.79 962.34 739.32 640.3 739.32 571.06 624.52 579.11 619.74 761.07 401.3 962.34 721.79"/>
      <polygon class="cls-2" points="571.06 624.52 640.3 739.32 36.46 739.32 36.46 737.73 439.01 401.3 571.06 624.52"/>
      <path class="cls-1" d="M619.36,162.14c56.37,0,101.44,44.64,101.44,100.44s-45.08,100.46-101.44,100.46-101.44-44.66-101.44-100.46,45.08-100.44,101.44-100.44Z"/>
      <path class="cls-3" d="M962.34,978.48H36.46c-11.27,0-20.93-9.56-20.93-20.72v-218.44c0-11.16,9.65-20.72,20.93-20.72s20.93,9.56,20.93,20.72v199.3h885.64v-199.3c0-11.16,9.65-20.72,20.93-20.72s20.94,9.56,20.94,20.72v220.02c-3.22,9.58-12.89,19.14-22.55,19.14Z"/>
      <path class="cls-3" d="M640.3,760.04H36.46c-11.27,0-20.93-9.56-20.93-20.72v-1.59c0-11.16,9.65-20.74,20.93-20.74,3.22,0,4.83,0,8.05,1.6h595.8c11.26,0,20.93,9.56,20.93,19.14-1.62,12.75-11.27,22.31-20.93,22.31Z"/>
      <path class="cls-3" d="M962.34,760.04h-322.04c-6.45,0-14.5-3.19-17.72-9.56l-188.4-318.88L49.33,753.67c-6.43,4.78-14.48,6.37-20.93,3.18-6.45-3.18-11.27-9.56-11.27-17.53V42.56c0-11.16,9.67-20.72,20.94-20.72h925.87c11.27,0,20.94,9.56,20.94,20.72v698.34c-3.22,9.58-12.89,19.14-22.55,19.14ZM651.56,720.18h285.01l-178.73-285.39-161.03,194.5,54.75,90.88ZM55.78,61.7v632.98l368.75-309.32c4.83-3.19,11.26-4.78,16.1-4.78,6.43,1.59,11.27,4.78,14.5,9.56l120.76,202.49,169.08-204.08c4.83-4.78,9.65-7.97,16.1-7.97s12.88,3.19,16.1,9.56l164.25,261.49V61.7H55.78Z"/>
      <path class="cls-3" d="M619.36,380.58c-66.02,0-120.76-54.22-120.76-119.58s54.75-119.58,120.76-119.58,120.76,54.22,120.76,119.58-54.75,119.58-120.76,119.58ZM619.36,181.28c-45.09,0-80.51,35.08-80.51,79.72s35.42,79.72,80.51,79.72,80.51-35.08,80.51-79.72-35.42-79.72-80.51-79.72Z"/>
      <path class="cls-3" d="M820.64,868.46h-402.55c-11.27,0-20.93-9.56-20.93-20.72s9.65-20.72,20.93-20.72h402.55c11.27,0,20.94,9.56,20.94,20.72,0,12.75-9.67,20.72-20.94,20.72Z"/>
      <path class="cls-3" d="M318.25,868.46h-141.71c-11.27,0-20.93-9.56-20.93-20.72s9.65-20.72,20.93-20.72h141.71c11.27,0,20.93,9.56,20.93,20.72-1.6,12.75-11.26,20.72-20.93,20.72Z"/>
      <path class="cls-3" d="M368.17,919.48c-38.65,0-70.84-31.89-70.84-70.14s32.2-70.16,70.84-70.16,70.85,31.89,70.85,70.16-32.2,70.14-70.85,70.14ZM368.17,819.04c-16.1,0-30.59,12.75-30.59,30.3,0,15.94,12.88,30.28,30.59,30.28,16.1,0,30.6-12.75,30.6-30.28s-14.5-30.3-30.6-30.3Z"/>
    </g>
  </g>
</svg>