<?xml version="1.0" encoding="UTF-8"?>
<svg id="Layer_1" data-name="Layer 1" xmlns="http://www.w3.org/2000/svg" viewBox="0 0 1000 1000">
  <defs>
    <style>
      .cls-1 {
        fill: #fff;
      }

      .cls-2 {
        fill: #d6b0ff;
      }

      .cls-3 {
        fill: #9852d7;
      }
    </style>
  </defs>
  <g id="B584_Film_Film_Media" data-name="B584, Film, Film, Media">
    <g>
      <polygon class="cls-1" points="598.23 729.11 458.13 799.27 458.13 660.55 598.23 729.11"/>
      <path class="cls-2" d="M508.05,579.23c83.74,0,151.37,66.97,151.37,149.88s-67.64,149.88-151.37,149.88-151.38-66.97-151.38-149.88,67.64-149.88,151.38-149.88ZM458.13,799.27l140.1-68.56-140.1-70.16v138.72Z"/>
      <polygon class="cls-2" points="297.09 379.91 297.09 440.5 156.99 440.5 156.99 379.91 156.99 359.19 156.99 281.05 297.09 281.05 297.09 335.27 297.09 379.91"/>
      <polygon class="cls-2" points="962.17 41.87 962.17 220.46 297.09 335.27 297.09 281.05 156.99 281.05 156.99 359.19 36.21 379.91 36.21 201.32 962.17 41.87"/>
      <path class="cls-3" d="M508.05,898.13c-95.01,0-170.7-76.53-170.7-169.02s77.3-169.02,170.7-169.02,172.31,74.95,172.31,169.02-77.3,169.02-172.31,169.02ZM508.05,599.95c-72.47,0-130.44,57.4-130.44,129.16s57.97,129.16,130.44,129.16,130.44-57.4,130.44-129.16-57.97-129.16-130.44-129.16Z"/>
      <path class="cls-3" d="M458.13,818.41c-3.22,0-8.05-1.6-11.27-3.19-6.44-3.18-9.66-9.56-9.66-17.53v-137.13c0-6.38,3.22-12.76,9.66-17.54,6.45-3.19,12.89-4.78,19.32-1.6l140.11,68.57c6.44,3.18,11.27,9.56,11.27,17.53s-4.83,14.36-11.27,17.54l-140.11,68.57c-1.61,4.78-4.83,4.78-8.05,4.78ZM479.06,692.44v73.35l74.08-36.68-74.08-36.67Z"/>
      <path class="cls-3" d="M962.17,977.86H36.21c-11.27,0-20.93-9.57-20.93-20.73v-457.63c0-11.16,9.65-20.73,20.93-20.73s20.94,9.56,20.94,20.73v438.5h885.7v-438.5c0-11.16,9.66-20.73,20.94-20.73s20.94,9.56,20.94,20.73v459.22c-3.22,9.57-12.89,19.14-22.55,19.14Z"/>
      <path class="cls-3" d="M962.17,520.23H36.21c-11.27,0-20.93-9.56-20.93-20.73v-119.59c0-11.16,9.65-20.73,20.93-20.73h120.78c11.27,0,20.94,9.56,20.94,20.73s-9.66,20.73-20.94,20.73H55.53v79.73h885.7v-79.73H297.09c-11.27,0-20.94-9.56-20.94-20.73s9.66-20.73,20.94-20.73h665.08c11.27,0,20.94,9.56,20.94,20.73v119.59c-1.61,11.16-11.27,20.73-20.94,20.73Z"/>
      <path class="cls-3" d="M36.21,400.64c-4.83,0-9.66-1.59-12.88-4.78-4.83-3.19-6.45-9.57-6.45-15.95v-178.59c0-9.56,6.45-17.53,16.11-19.13L958.96,22.74c6.44-1.6,11.27,0,16.1,4.78,4.83,3.19,6.44,9.57,6.44,15.95v176.99c0,9.57-6.44,17.54-16.1,19.14l-665.08,114.8c-11.27,1.6-20.94-4.78-22.54-15.95-1.61-11.16,4.83-20.73,16.1-22.32l647.36-111.62V65.79L55.53,218.86v138.73l96.62-15.95c11.27-1.6,20.94,4.78,22.55,15.95,1.61,11.16-4.83,20.73-16.1,22.32l-119.17,19.14c-1.61,0-3.22,1.59-3.22,1.59Z"/>
      <path class="cls-3" d="M297.09,459.64h-141.72c-11.27,0-20.93-9.57-20.93-20.73v-159.45c0-11.16,9.66-20.73,20.93-20.73h141.72c11.27,0,20.93,9.57,20.93,20.73v159.45c0,11.16-9.66,20.73-20.93,20.73ZM176.31,419.77h101.46v-119.59h-101.46v119.59Z"/>
    </g>
  </g>
</svg>