<?xml version="1.0" encoding="UTF-8"?>
<svg id="Layer_1" data-name="Layer 1" xmlns="http://www.w3.org/2000/svg" viewBox="0 0 1000 1000">
  <defs>
    <style>
      .cls-1 {
        fill: #fff;
      }

      .cls-2 {
        fill: #d6b0ff;
      }

      .cls-3 {
        fill: #9852d7;
      }
    </style>
  </defs>
  <g id="B578_Camera_Film_Media_Movie_Video" data-name="B578, Camera, Film, Media, Movie, Video">
    <g>
      <polygon class="cls-2" points="439.17 600.36 439.17 720.78 337.01 720.78 236.47 720.78 236.47 600.36 439.17 600.36"/>
      <path class="cls-1" d="M792.68,621.23c-94.05,0-171.89,77.07-171.89,170.2s77.84,170.2,171.89,170.2,171.9-77.08,171.9-170.2c1.62-93.13-76.21-170.2-171.9-170.2Z"/>
      <polygon class="cls-1" points="872.14 789.82 748.9 862.08 748.9 719.18 872.14 789.82"/>
      <path class="cls-2" d="M641.87,300.1v-80.28h-51.89c-19.46,46.56-66.48,80.29-121.62,80.29s-102.16-33.73-121.62-80.29h-19.46c-19.46,46.56-66.49,80.29-121.63,80.29s-102.15-33.73-121.61-80.29h-50.27v380.55h608.11v-80.28l222.16,40.14v-300.26l-222.16,40.14Z"/>
      <path class="cls-3" d="M236.47,621.23H33.77c-11.35,0-21.08-9.64-21.08-20.87V219.81c0-11.24,9.73-20.87,21.08-20.87h50.27c11.35,0,15.34,9.63,15.34,20.87s-3.98,20.87-15.34,20.87h-30.81v342.01h183.24c11.35,0,21.08,9.64,21.08,20.87-1.62,8.03-11.35,17.66-21.08,17.66Z"/>
      <path class="cls-3" d="M641.87,621.23h-202.7c-11.35,0-21.08-9.64-21.08-20.87s9.73-20.88,21.08-20.88h181.62v-61.01c0-6.42,3.25-11.24,6.48-16.06,4.87-3.21,11.35-4.82,16.22-4.82l199.45,35.33v-248.88l-199.45,35.33c-6.49,1.6-11.35,0-16.22-4.82-4.86-3.21-6.48-9.64-6.48-16.06v-61.01h-30.81c-11.35,0-16.22-10.05-16.22-21.3s4.86-20.45,16.22-20.45h50.27c11.35,0,21.08,9.64,21.08,20.87v56.2l199.45-35.32c6.49-1.61,11.35,0,16.22,4.81,4.86,3.21,6.49,9.64,6.49,16.06v301.87c0,6.42-3.24,11.23-6.49,16.06-4.87,3.21-11.35,4.81-16.22,4.81l-199.45-35.33v56.2c0,9.64-9.73,19.27-19.46,19.27Z"/>
      <path class="cls-3" d="M205.65,319.37c-61.62,0-116.76-36.94-141.08-93.13-8.11-17.66-11.35-38.53-11.35-57.81,0-83.49,68.11-150.93,152.43-150.93s152.44,67.44,152.44,150.93c0,19.27-3.25,40.14-11.35,57.81-24.33,57.81-79.46,93.13-141.08,93.13ZM205.65,59.25c-61.62,0-111.89,49.78-111.89,110.79,0,14.45,3.25,28.91,8.11,41.75,17.84,41.75,58.38,67.44,102.17,67.44s85.94-27.3,102.16-67.44c4.87-12.84,8.11-27.3,8.11-41.75,3.25-61.01-47.03-110.79-108.65-110.79Z"/>
      <path class="cls-3" d="M470.36,319.37c-61.62,0-116.76-36.94-141.08-93.13-8.11-17.66-11.35-38.53-11.35-57.81,0-83.49,68.11-150.93,152.44-150.93s152.43,67.44,152.43,150.93c0,19.27-3.25,40.14-11.35,57.81-24.32,57.81-79.46,93.13-141.08,93.13ZM470.36,59.25c-61.62,0-111.89,49.78-111.89,110.79,0,14.45,3.25,28.91,8.11,41.75,17.84,41.75,58.38,67.44,102.17,67.44s85.94-27.3,102.16-67.44c4.87-12.84,8.11-27.3,8.11-41.75,3.25-61.01-47.03-110.79-108.64-110.79Z"/>
      <path class="cls-3" d="M792.68,982.5c-105.4,0-192.97-85.1-192.97-191.07s85.94-191.07,192.97-191.07,192.98,85.1,192.98,191.07-85.94,191.07-192.98,191.07ZM792.68,640.5c-84.32,0-152.43,67.43-152.43,150.93s68.11,150.93,152.43,150.93,152.44-67.44,152.44-150.93-68.11-150.93-152.44-150.93Z"/>
      <path class="cls-3" d="M748.9,881.35c-3.25,0-6.48-1.61-9.73-3.21-6.48-3.21-9.73-9.64-9.73-17.66v-141.3c0-6.42,3.25-14.45,9.73-17.66,6.48-3.21,14.59-3.21,21.08,0l124.86,70.65c6.48,3.21,9.73,9.64,9.73,17.66,0,6.42-3.25,14.45-9.73,17.66l-126.48,70.65c-3.25,1.61-6.48,3.21-9.73,3.21ZM768.36,754.5v72.26l63.25-36.93-63.25-35.33Z"/>
      <path class="cls-3" d="M439.17,741.65h-202.71c-11.35,0-21.08-9.64-21.08-19.27v-120.43c0-11.23,9.73-20.87,21.08-20.87h202.71c11.34,0,21.07,9.64,21.07,20.87v120.43c-1.62,9.64-11.35,19.27-21.07,19.27ZM255.93,701.51h162.17v-80.28h-162.17v80.28Z"/>
      <path class="cls-3" d="M194.31,982.5c-3.25,0-6.49-1.61-9.73-3.21-9.74-4.81-12.98-17.66-6.49-27.29l142.71-240.85c4.86-8.03,14.59-11.24,22.7-9.64,8.11,1.61,14.6,9.64,14.6,19.27v240.85c0,11.23-9.73,20.87-21.08,20.87s-21.08-9.64-21.08-20.87v-165.39l-103.78,176.62c-3.25,6.42-9.73,9.64-17.84,9.64Z"/>
      <path class="cls-3" d="M479.71,982.5c-6.48,0-12.97-3.21-17.84-9.64l-142.7-240.85c-4.87-9.64-1.62-22.48,6.49-27.29,9.73-4.82,22.7-1.61,27.57,6.42l142.71,240.85c4.86,9.64,1.62,22.48-6.49,27.29-3.24,1.61-6.48,3.21-9.73,3.21Z"/>
    </g>
  </g>
</svg>