<?xml version="1.0" encoding="UTF-8"?>
<svg id="Layer_1" data-name="Layer 1" xmlns="http://www.w3.org/2000/svg" viewBox="0 0 1000 1000">
  <defs>
    <style>
      .cls-1 {
        fill: #d6b0ff;
      }

      .cls-2 {
        fill: #9852d7;
      }
    </style>
  </defs>
  <g id="_535_Illumination_Light_Lightning_Spotlight_Studio_Light" data-name="535, Illumination, Light, Lightning, Spotlight, Studio Light">
    <g>
      <path class="cls-1" d="M828.74,619.71c27.36,0,49.53,22.18,49.53,49.55s-22.17,49.53-49.53,49.53-49.54-22.18-49.54-49.53,22.18-49.55,49.54-49.55Z"/>
      <path class="cls-1" d="M629,800.29c27.36,0,49.53,22.17,49.53,49.53s-22.17,49.53-49.53,49.53-49.53-22.18-49.53-49.53,22.17-49.53,49.53-49.53Z"/>
      <path class="cls-1" d="M489.98,579.77c27.16,0,49.53,22.37,49.53,49.53s-22.37,49.53-49.53,49.53-49.54-22.37-49.54-49.53,20.78-49.53,49.54-49.53Z"/>
      <path class="cls-1" d="M160.81,220.24v79.89h-79.9c-11.18,0-20.77-4.8-28.76-11.18-7.99-7.99-11.18-17.59-11.18-28.77,0-22.37,17.58-39.94,39.95-39.94h79.9Z"/>
      <rect class="cls-1" x="280.65" y="180.29" width="79.9" height="159.8"/>
      <path class="cls-1" d="M280.65,340.09v20.76c0,33.57-27.17,60.73-60.72,60.73s-60.72-27.17-60.72-60.73v-201.34c0-33.55,27.16-60.72,60.72-60.72,15.97,0,31.96,6.39,43.14,17.57,11.18,11.2,17.58,25.58,17.58,43.15v180.57Z"/>
      <path class="cls-1" d="M459.62,140.34v239.69h-63.92c-19.18,0-36.75-15.98-36.75-36.74v-169.38c0-19.17,15.97-36.76,36.75-36.76h63.92v3.19Z"/>
      <path class="cls-1" d="M640.18,201.07c33.56,0,60.72,27.16,60.72,60.72,0,15.98-6.39,31.96-17.58,43.15-11.18,11.18-25.57,17.57-43.15,17.57h-20.77v-119.84h20.77v-1.59Z"/>
      <path class="cls-2" d="M459.62,161.12c-11.19,0-20.78-9.59-20.78-20.78v-30.36c0-49.53,39.95-89.48,89.49-89.48h91.08c11.18,0,20.77,9.59,20.77,20.78s-9.59,20.78-20.77,20.78h-91.08c-27.16,0-49.53,22.37-49.53,49.53v28.75c1.6,11.18-7.99,20.78-19.17,20.78Z"/>
      <path class="cls-2" d="M619.41,499.87h-91.08c-49.53,0-89.49-39.94-89.49-89.48v-30.36c0-11.18,9.59-20.76,20.78-20.76s20.77,9.58,20.77,20.76v30.36c0,27.18,22.37,49.55,49.53,49.55h89.49c11.18,0,20.77,9.58,20.77,20.76s-9.59,19.17-20.77,19.17Z"/>
      <path class="cls-2" d="M619.41,499.87c-3.19,0-7.99-1.59-11.18-3.19-4.8-3.19-7.99-9.58-7.99-15.98v-159.78c0-11.2,9.59-20.78,20.77-20.78s20.77,9.58,20.77,20.78v131.03l100.67-39.95V108.39l-100.67-39.95v131.03c0,11.19-9.59,20.78-20.77,20.78s-20.77-9.59-20.77-20.78V39.67c0-6.39,3.19-12.77,7.99-15.98,4.79-3.19,12.78-4.78,19.17-1.59l139.02,54.33c7.99,3.19,12.78,9.58,12.78,19.17v329.17c0,7.99-4.79,15.98-12.78,19.17l-139.02,54.33c-3.2,1.59-4.8,1.59-7.99,1.59Z"/>
      <path class="cls-2" d="M640.18,340.09h-20.77c-11.18,0-20.77-9.59-20.77-20.78v-119.84c0-11.18,9.59-20.78,20.77-20.78h20.77c44.74,0,79.9,35.16,79.9,79.91,0,20.76-7.99,41.54-23.97,55.92-15.98,17.58-35.16,25.58-55.93,25.58ZM640.18,220.24v79.89c11.18,0,20.77-4.8,28.76-11.18,7.99-7.99,11.18-17.59,11.18-28.77,0-22.37-19.17-39.94-39.95-39.94Z"/>
      <path class="cls-2" d="M160.81,320.91h-79.9c-15.97,0-30.36-6.4-43.14-17.59-12.79-11.18-17.58-27.16-17.58-43.15,0-33.55,27.16-60.72,60.72-60.72h79.9c11.18,0,20.77,9.58,20.77,20.78s-9.59,20.76-20.77,20.76h-79.9c-11.18,0-20.77,9.6-20.77,20.78,0,4.8,1.6,9.58,6.39,14.38,3.19,3.19,7.99,6.4,14.38,6.4h79.9c11.18,0,20.77,9.58,20.77,20.76s-11.18,17.59-20.77,17.59Z"/>
      <path class="cls-2" d="M219.94,979.24c-11.19,0-20.78-9.58-20.78-20.76V419.98c0-11.18,9.59-20.78,20.78-20.78s20.77,9.59,20.77,20.78v540.09c0,9.59-9.59,19.17-20.77,19.17Z"/>
      <path class="cls-2" d="M320.6,979.24c-6.39,0-12.78-3.19-15.97-7.99l-84.69-116.64-83.1,116.64c-6.39,9.59-19.17,11.2-27.16,4.8-9.59-6.39-11.19-19.17-4.8-27.16l100.67-140.61c3.19-4.8,9.59-7.99,15.98-7.99s12.78,3.19,15.97,7.99l100.67,140.61c6.39,9.59,4.8,20.78-4.79,27.16-4.8,1.6-9.59,3.19-12.79,3.19Z"/>
      <path class="cls-2" d="M219.94,640.49h-60.72c-11.18,0-20.77-9.6-20.77-20.78s9.59-20.76,20.77-20.76h60.72c11.18,0,20.77,9.58,20.77,20.76s-9.59,20.78-20.77,20.78Z"/>
      <path class="cls-2" d="M219.94,440.76c-44.74,0-79.9-35.15-79.9-79.91v-199.73c0-44.75,35.16-79.89,79.9-79.89,20.77,0,41.54,7.99,55.93,23.96,14.38,14.39,23.96,35.16,23.96,55.93v20.78c0,11.19-9.59,20.76-20.77,20.76s-20.77-9.58-20.77-20.76v-20.78c0-11.18-4.8-20.78-11.18-28.77-7.99-7.99-17.58-11.18-28.77-11.18-22.37,0-39.95,17.59-39.95,39.95v199.73c0,22.38,17.58,39.95,39.95,39.95s39.95-17.57,39.95-39.95v-20.76c0-11.18,9.59-20.78,20.77-20.78s20.77,9.59,20.77,20.78v20.76c0,43.15-35.16,79.91-79.89,79.91Z"/>
      <path class="cls-2" d="M360.55,360.85h-79.9c-11.19,0-20.77-9.58-20.77-20.76v-159.8c0-11.18,9.59-20.78,20.77-20.78h79.9c11.18,0,20.77,9.59,20.77,20.78s-9.59,20.78-20.77,20.78h-60.72v119.84h60.72c11.18,0,20.77,9.58,20.77,20.76s-11.18,19.17-20.77,19.17Z"/>
      <path class="cls-2" d="M459.62,400.8h-63.92c-30.36,0-55.93-25.56-55.93-55.93v-167.77c0-30.36,25.56-55.93,55.93-55.93h63.92c11.18,0,20.77,9.59,20.77,20.78v239.69c0,9.58-9.59,19.17-20.77,19.17ZM395.71,161.12c-9.59,0-15.98,6.39-15.98,15.98v167.77c0,9.59,6.39,15.98,15.98,15.98h44.74v-199.73h-44.74Z"/>
      <path class="cls-2" d="M839.93,201.07c-6.39,0-12.78-3.21-15.98-9.59-6.39-9.58-3.19-22.37,4.8-27.16l119.84-79.89c9.59-6.4,22.37-3.19,27.16,4.8,4.8,7.99,3.2,22.37-4.79,27.15l-119.84,79.91c-4.79,3.19-7.99,4.8-11.18,4.8Z"/>
      <path class="cls-2" d="M958.17,440.76c-3.2,0-7.99-1.6-11.19-3.19l-119.84-79.91c-9.59-6.39-11.19-19.17-4.8-27.16,6.39-9.58,19.17-11.18,27.16-4.8l119.84,79.91c9.59,6.39,11.18,19.17,4.79,27.16-3.19,4.8-7.98,7.99-15.97,7.99Z"/>
      <path class="cls-2" d="M959.77,280.96h-119.84c-11.18,0-20.77-9.59-20.77-20.78s9.59-20.76,20.77-20.76h119.84c11.18,0,20.77,9.58,20.77,20.76s-11.18,20.78-20.77,20.78Z"/>
      <path class="cls-2" d="M489.98,699.62c-38.35,0-70.31-31.96-70.31-70.31s31.96-70.31,70.31-70.31,70.3,31.96,70.3,70.31-31.95,70.31-70.3,70.31ZM489.98,600.54c-15.98,0-30.36,12.79-30.36,30.36s12.78,30.37,30.36,30.37c15.98,0,30.36-12.79,30.36-30.37s-14.38-30.36-30.36-30.36Z"/>
      <path class="cls-2" d="M828.74,739.56c-38.36,0-70.31-31.95-70.31-70.3s31.96-70.31,70.31-70.31,70.3,31.95,70.3,70.31-31.96,70.3-70.3,70.3ZM828.74,640.49c-15.98,0-30.37,12.79-30.37,30.36s12.79,30.36,30.37,30.36c15.97,0,30.36-12.77,30.36-30.36s-12.78-30.36-30.36-30.36Z"/>
      <path class="cls-2" d="M629,920.13c-38.35,0-70.31-31.96-70.31-70.31s31.96-70.31,70.31-70.31,70.31,31.96,70.31,70.31-31.96,70.31-70.31,70.31ZM629,819.46c-15.98,0-30.36,12.77-30.36,30.36,0,15.98,12.78,30.36,30.36,30.36s30.36-12.79,30.36-30.36-12.78-30.36-30.36-30.36Z"/>
    </g>
  </g>
</svg>