<?xml version="1.0" encoding="UTF-8"?>
<svg id="Layer_1" data-name="Layer 1" xmlns="http://www.w3.org/2000/svg" viewBox="0 0 1000 1000">
  <defs>
    <style>
      .cls-1 {
        fill: #d6b0ff;
      }

      .cls-2 {
        fill: #9852d7;
      }
    </style>
  </defs>
  <g id="_514_Brush_Paint_Tool_Pencil" data-name="514, Brush, Paint, Tool, Pencil">
    <g>
      <path class="cls-1" d="M918.68,498.19c18.12,0,34.43,14.49,34.43,34.43s-14.5,34.44-34.43,34.44c-18.12,0-34.44-14.5-34.44-34.44s16.32-34.43,34.44-34.43Z"/>
      <path class="cls-1" d="M115.75,543.5c25.37,0,45.31,19.94,45.31,45.31s-21.75,45.31-45.31,45.31c-25.37,0-45.3-19.93-45.3-45.31s19.93-45.31,45.3-45.31Z"/>
      <polygon class="cls-1" points="697.56 226.32 503.62 422.07 436.57 487.31 186.44 739.25 266.2 755.56 282.51 835.31 525.38 590.62 601.5 514.5 793.62 322.38 697.56 226.32"/>
      <path class="cls-1" d="M889.68,130.26c12.69,12.69,19.94,30.81,19.94,48.93s-7.25,34.44-19.94,48.93l-48.93,48.94-96.06-96.06,48.94-48.93c27.18-29.01,70.68-29.01,96.05-1.82Z"/>
      <path class="cls-1" d="M619.63,701.19c1.82-21.75,9.06-41.69,23.56-58,18.12-18.12,43.5-25.37,70.69-25.37,43.5-1.82,92.43,16.31,121.44,45.31,41.68,41.68-10.88,92.43,81.56,219.31-70.69-16.31-204.81-14.5-244.68-56.19-32.63-29-56.19-79.74-52.57-125.06Z"/>
      <path class="cls-2" d="M953.12,316.94c12.69,0,23.56,10.88,23.56,23.57s-10.87,23.56-23.56,23.56-23.56-10.87-23.56-23.56,10.87-23.57,23.56-23.57Z"/>
      <path class="cls-2" d="M659.5,929.56c12.69,0,23.56,10.87,23.56,23.56s-10.87,23.56-23.56,23.56-23.57-12.69-23.57-25.37,10.88-21.74,23.57-21.74Z"/>
      <path class="cls-2" d="M478.25,249.88c12.69,0,23.56,10.87,23.56,23.56s-10.87,23.57-23.56,23.57-23.56-12.69-23.56-25.37,10.87-21.75,23.56-21.75Z"/>
      <path class="cls-2" d="M474.63,547.12c3.62,3.62,7.25,10.87,7.25,16.32s-1.82,10.87-7.25,16.31c-9.07,9.07-23.57,9.07-32.63,0-3.62-3.63-7.25-10.87-7.25-16.31s1.82-10.88,7.25-16.32c3.62-3.62,10.87-7.25,16.31-7.25s10.88,1.82,16.32,7.25Z"/>
      <path class="cls-2" d="M454.69,860.68c12.69,0,23.56,10.87,23.56,23.56s-10.87,21.74-23.56,21.74-23.56-10.87-23.56-23.56c1.81-10.87,10.87-21.75,23.56-21.75Z"/>
      <path class="cls-2" d="M182.82,362.25c12.69,0,23.56,10.88,23.56,23.57s-10.87,23.56-23.56,23.56-23.56-10.88-23.56-23.56,10.87-23.57,23.56-23.57Z"/>
      <path class="cls-2" d="M46.88,181.01c12.69,0,23.57,10.87,23.57,23.56s-10.88,23.56-23.57,23.56-23.56-10.87-23.56-23.56,10.87-23.56,23.56-23.56Z"/>
      <path class="cls-2" d="M842.56,297.01c-5.44,0-10.88-1.82-16.32-7.25l-96.06-96.06c-9.06-9.07-9.06-23.56,0-32.63,9.07-9.07,23.57-9.07,32.63,0l96.06,96.06c9.07,9.06,9.07,23.56,0,32.63-5.44,5.44-10.87,7.25-16.31,7.25Z"/>
      <path class="cls-2" d="M793.62,345.94c-5.44,0-10.87-1.82-16.31-7.25l-96.06-96.06c-9.06-9.06-9.06-23.56,0-32.63,9.07-9.06,23.56-9.06,32.63,0l96.06,96.06c9.06,9.07,9.06,23.56,0,32.63-3.63,3.62-9.06,7.25-16.32,7.25Z"/>
      <path class="cls-2" d="M282.51,857.05c-10.87,0-19.94-7.25-21.75-18.12l-12.7-65.25-67.06-12.69c-12.69-1.81-19.94-14.49-18.12-27.18,1.81-12.69,14.5-19.94,27.19-18.13l79.74,16.32c9.07,1.82,16.32,9.07,18.12,18.12l16.32,79.75c1.81,12.68-5.44,23.56-18.12,27.18h-3.63Z"/>
      <path class="cls-2" d="M266.2,777.31c-5.44,0-10.88-1.82-16.32-7.25-9.06-9.07-9.06-23.56,0-32.63l145-145c9.07-9.07,23.57-9.07,32.63,0,9.07,9.06,9.07,23.56,0,32.63l-145,145c-5.44,5.44-10.87,7.25-16.31,7.25Z"/>
      <path class="cls-2" d="M915.06,905.99h-5.44c-21.74-5.44-50.75-9.06-79.74-10.87-70.69-7.25-143.19-16.31-175.82-48.93-36.25-36.25-59.81-94.25-56.19-143.18,1.82-29,12.69-54.38,30.81-72.5,19.94-19.94,50.75-32.63,85.19-32.63h5.44c48.93,0,101.5,19.94,132.31,50.75,23.57,23.56,25.37,47.13,27.19,74.31,1.82,34.44,5.44,77.94,56.19,146.81,3.62,3.63,5.44,9.07,5.44,14.5-3.62,10.87-12.69,21.74-25.37,21.74h0ZM717.49,641.37h-3.62c-16.31,0-39.88,3.63-54.37,19.94-10.88,10.87-16.32,23.56-16.32,41.68-1.82,36.25,16.32,81.57,43.5,108.75,21.75,21.75,92.44,30.81,148.63,36.25,10.87,1.81,23.56,1.81,34.43,3.62-32.62-58-34.43-99.68-36.25-128.69-1.82-23.56-3.62-34.43-12.69-45.31-25.37-21.75-67.06-36.25-103.31-36.25Z"/>
      <path class="cls-2" d="M712.06,641.37c-5.44,0-10.87-1.82-16.31-5.44l-110.57-103.31c-9.06-9.06-9.06-23.56-1.81-32.62,7.25-9.07,23.57-9.07,32.63-1.82l110.56,103.31h0c9.06,9.06,9.06,23.57,0,32.63-1.82,5.44-7.25,7.25-14.5,7.25Z"/>
      <path class="cls-2" d="M619.63,724.75c-5.44,0-10.88-1.81-16.32-7.25l-1.81-1.82-92.44-108.74c-3.62-3.63-5.44-9.07-5.44-14.5,0-12.69,10.87-23.56,23.56-23.56,7.25,0,12.69,3.62,18.13,9.06l92.43,108.75c7.25,9.07,7.25,21.75-1.82,30.81-5.44,5.44-10.87,7.25-16.31,7.25Z"/>
      <path class="cls-2" d="M436.57,510.88c-7.25,0-12.69-1.82-18.12-7.25L144.76,179.19c-14.5-18.12-14.5-45.31,1.81-61.62,18.13-18.12,45.31-18.12,63.44-1.81l308.13,288.19c9.06,9.06,9.06,23.56,1.81,32.63-9.06,9.06-23.57,9.06-32.63,1.81L179.19,150.2h0l275.5,322.62c7.25,9.06,7.25,23.56-1.81,32.63-5.44,3.62-10.87,5.44-16.31,5.44Z"/>
      <path class="cls-2" d="M137.51,905.99c-5.44,0-10.87-1.81-16.32-7.24-5.44-5.44-9.06-14.5-5.44-23.57l48.94-145c1.81-3.62,3.62-7.25,5.44-9.06l250.12-250.12,65.25-65.25,195.74-195.75,96.06-96.06c16.31-16.31,39.88-27.18,63.44-27.18s47.12,9.06,63.44,27.18c16.31,16.32,27.19,39.88,27.19,63.44s-9.06,47.13-27.19,63.44L297.01,851.62c-1.82,1.81-5.44,3.62-9.07,5.44l-145,48.93h-5.44ZM204.57,751.94l-32.62,96.06,96.06-32.63L873.37,210c9.06-9.06,12.69-19.93,12.69-32.63s-5.44-23.56-12.69-32.62c-9.07-9.07-19.94-12.69-32.63-12.69s-23.56,5.44-32.63,12.69L204.57,751.94Z"/>
      <path class="cls-2" d="M115.75,657.69c-38.06,0-68.87-30.81-68.87-68.87s30.81-68.88,68.87-68.88,68.87,30.81,68.87,68.88-32.62,68.87-68.87,68.87ZM115.75,567.06c-12.69,0-23.56,10.87-23.56,23.56s10.87,23.57,23.56,23.57,23.57-10.88,23.57-23.57-12.69-23.56-23.57-23.56Z"/>
      <path class="cls-2" d="M918.68,588.82c-30.81,0-56.19-25.37-56.19-56.19s25.37-56.19,56.19-56.19,56.19,25.37,56.19,56.19-25.37,56.19-56.19,56.19ZM918.68,521.75c-5.44,0-10.88,5.44-10.88,10.87s5.44,10.88,10.88,10.88,10.87-5.45,10.87-10.88-3.62-10.87-10.87-10.87Z"/>
      <path class="cls-2" d="M568.88,204.57c-50.75,0-90.62-39.88-90.62-90.63s39.88-90.62,90.62-90.62,90.63,39.87,90.63,90.62-41.69,90.63-90.63,90.63ZM568.88,68.64c-25.37,0-45.31,19.93-45.31,45.31s19.94,45.31,45.31,45.31,45.31-19.94,45.31-45.31-21.75-45.31-45.31-45.31Z"/>
    </g>
  </g>
</svg>