<?xml version="1.0" encoding="UTF-8"?>
<svg id="Layer_1" data-name="Layer 1" xmlns="http://www.w3.org/2000/svg" viewBox="0 0 1000 1000">
  <defs>
    <style>
      .cls-1 {
        fill: #9852d7;
      }
    </style>
  </defs>
  <g id="_547_Eyesight_Focus_Imagination_View_Vision" data-name="547, Eyesight, Focus, Imagination, View, Vision">
    <g>
      <path class="cls-1" d="M32.6,297.59c-11.38,0-21.13-9.75-21.13-21.13V32.6c0-11.38,9.75-21.13,21.13-21.13h243.86c11.38,0,21.14,9.76,21.14,21.13s-9.76,21.13-21.14,21.13H52.11v224.35c0,9.75-9.75,19.51-19.51,19.51Z"/>
      <path class="cls-1" d="M967.39,297.59c-11.38,0-21.14-9.75-21.14-21.13V53.74h-222.72c-11.38,0-21.14-9.75-21.14-21.13s9.76-21.13,21.14-21.13h243.86c11.38,0,21.14,9.76,21.14,21.13v243.86c-1.63,11.38-11.38,21.13-21.14,21.13Z"/>
      <path class="cls-1" d="M276.46,988.53H32.6c-11.38,0-21.13-9.75-21.13-21.13v-243.86c0-11.39,9.75-21.14,21.13-21.14s21.14,9.75,21.14,21.14v224.35h224.35c11.38,0,21.13,9.75,21.13,21.13-3.26,9.76-13.01,19.51-22.76,19.51Z"/>
      <path class="cls-1" d="M967.39,988.53h-243.86c-11.38,0-21.14-9.75-21.14-21.13s9.76-21.14,21.14-21.14h222.72v-221.09c0-11.38,9.76-21.14,21.14-21.14s21.14,9.76,21.14,21.14v243.86c-1.63,9.76-11.38,19.51-21.14,19.51Z"/>
      <path class="cls-1" d="M499.18,622.74c-66.65,0-121.93-55.28-121.93-121.93s55.28-121.93,121.93-121.93,121.93,55.28,121.93,121.93-55.28,121.93-121.93,121.93ZM499.18,419.52c-45.52,0-81.28,35.77-81.28,81.29s35.76,81.28,81.28,81.28,81.28-35.76,81.28-81.28-35.76-81.29-81.28-81.29Z"/>
      <path class="cls-1" d="M647.25,667.35c-42.68,37.66-98.54,56.48-157.09,53.33-56.25-3.06-110.62-27.91-150.57-70.67-38.85-41.58-61.15-96.39-60.31-155.03-.35-57.52,23.39-113.08,63.86-153.11l8.31-7.77c43.87-38.77,99.8-59.88,159.55-57.85,59.74,2.03,115.22,28.06,155.18,70.83,41.06,43.95,62.17,99.88,60.15,159.62-.85,58.63-25.77,115.3-68.54,155.26l-1.19,1.11c-2.37,2.22-5.86,3.25-9.35,4.28ZM373.29,371.76c-70.25,70.08-70.69,181.51-2.98,253.98,66.59,71.27,179.11,77.39,252.59,13.18,2.37-2.22,3.57-3.33,5.94-5.55l1.19-1.11h0c72.46-67.71,75.25-183.78,7.55-256.24-68.81-73.65-183.7-77.55-258.46-9.93q1.19-1.11,0,0c1.19-1.11,0,0,0,0-2.75,2.53-3.55,3.25-5.83,5.67Z"/>
      <path class="cls-1" d="M731.66,375.63c-4.88,0-9.76-1.62-14.63-6.5-8.13-8.13-8.13-21.14,0-29.26l40.63-40.65-56.89-56.9-48.78,48.77c-6.5,6.51-16.26,8.13-24.39,3.26-22.76-13.01-47.15-24.39-71.53-29.26-9.76-1.63-16.25-9.75-16.25-19.51v-68.29h-81.29v68.29c0,9.75-6.5,17.88-16.26,19.51-26.01,6.5-48.77,16.25-71.54,29.26-8.13,4.87-17.88,3.25-24.38-3.26l-48.77-48.77-56.91,56.9,37.4,37.39c8.12,8.13,8.12,21.14,0,29.26-8.13,8.13-21.14,8.13-29.27,0l-52.02-52.02c-8.13-8.13-8.13-21.13,0-29.26l86.16-86.16c8.13-8.13,21.13-8.13,29.26,0l52.03,52.02c17.88-9.75,35.76-16.26,53.65-22.76v-73.16c0-11.38,9.75-21.13,21.13-21.13h121.93c11.39,0,21.13,9.75,21.13,21.13v73.16c19.51,4.87,37.4,13,53.64,22.76l52.03-52.02c8.13-8.13,21.14-8.13,29.27,0l86.16,86.16c8.13,8.13,8.13,21.13,0,29.26l-55.27,55.28c-6.51,4.87-11.38,6.5-16.26,6.5Z"/>
      <path class="cls-1" d="M560.96,866.6h-121.93c-11.39,0-21.13-9.75-21.13-21.13v-73.16c-19.51-4.88-37.4-13.01-53.65-22.76l-52.03,53.65c-8.13,8.13-21.13,8.13-29.26,0l-86.16-86.16c-8.13-8.13-8.13-21.13,0-29.26l52.02-52.03c8.13-8.13,21.14-8.13,29.27,0,8.12,8.13,8.12,21.13,0,29.26l-37.4,37.39,56.91,56.9,48.77-48.77c6.5-6.51,16.26-8.13,24.39-3.25,22.76,13,47.15,24.38,71.53,29.26,9.76,1.62,16.26,9.76,16.26,19.51v68.28h81.29v-68.28c0-9.75,6.5-17.88,16.25-19.51,26.01-6.51,48.77-16.26,71.53-29.26,8.13-4.88,17.89-3.26,24.39,3.25l48.78,48.77,56.89-56.9-40.63-40.64c-8.13-8.13-8.13-21.13,0-29.26,8.13-8.13,21.13-8.13,29.25,0l55.28,55.28c8.13,8.13,8.13,21.13,0,29.26l-86.16,86.16c-8.13,8.13-21.14,8.13-29.26,0l-52.03-52.03c-17.89,9.76-35.77,16.26-53.66,22.76v73.16c0,9.76-9.75,19.51-19.5,19.51Z"/>
      <path class="cls-1" d="M494.31,725.16c-84.54,0-164.2-19.51-238.98-56.9-73.16-35.77-138.19-89.42-188.58-154.45-4.87-8.13-4.87-17.88,0-24.38,50.4-65.03,115.42-118.68,188.58-154.45,74.78-37.39,156.07-56.9,238.98-56.9h14.63c81.29,1.62,159.32,22.76,232.47,60.15,69.92,35.77,133.32,87.79,180.47,151.2,4.86,8.12,4.86,17.88,0,24.38-48.78,63.41-110.55,115.42-180.47,151.19-73.15,37.39-151.18,56.9-232.47,60.16h-11.38c-1.62-1.62-1.62,0-3.25,0ZM109.02,500.81c45.51,55.27,100.79,99.16,164.19,131.68,69.9,34.14,143.06,52.02,221.1,52.02h13c74.78-1.62,147.93-21.13,214.59-55.27,60.16-30.89,113.8-74.78,157.7-128.43-43.9-52.03-97.54-95.92-157.7-128.43-66.65-34.14-139.8-53.65-214.59-55.28h-13c-78.04,0-152.82,17.88-221.1,52.03-63.4,32.51-120.3,76.41-164.19,131.68Z"/>
    </g>
  </g>
</svg>