<?xml version="1.0" encoding="UTF-8"?>
<svg id="Layer_1" data-name="Layer 1" xmlns="http://www.w3.org/2000/svg" viewBox="0 0 1000 1000">
  <defs>
    <style>
      .cls-1 {
        fill: #9852d7;
      }
    </style>
  </defs>
  <g id="B_-_8_home_house_building_appartment" data-name="B - 8, home, house, building, appartment">
    <g>
      <path class="cls-1" d="M918.31,813.89h-400.23c-3.55,0-7.09-3.51-7.09-7.02v-410.32c0-1.75,1.77-3.49,1.77-5.26l200.11-185.86c3.55-3.51,7.09-3.51,10.63,0l200.11,184.12c1.76,1.75,1.76,3.51,1.76,5.26v410.32c0,5.26-3.55,8.77-7.07,8.77ZM525.16,798.1h384.29v-399.79l-191.26-177.11-193.04,177.11v399.79Z"/>
      <path class="cls-1" d="M978.51,459.68c-1.78,0-3.55,0-5.31-1.76l-255.01-236.72-255.02,236.72c-1.77,1.76-5.32,3.51-8.85,1.76-3.54-1.76-5.32-3.51-5.32-7.02v-49.09c0-1.75,1.77-3.51,1.77-5.26l262.09-241.98c3.55-3.51,7.09-3.51,10.63,0l260.32,240.21c1.78,1.76,1.78,3.51,1.78,5.27v49.09c0,3.51-1.78,5.26-5.33,7,0,1.76-1.76,1.76-1.76,1.76ZM464.95,405.31v28.07l246.16-227.95c3.54-3.51,7.09-3.51,10.62,0l246.16,227.95v-28.07l-249.68-233.21-253.25,233.21Z"/>
      <path class="cls-1" d="M900.58,338.68c-1.76,0-3.53,0-5.31-1.75l-44.26-42.09c-1.78-1.75-1.78-3.51-1.78-5.26v-33.32c0-3.49,3.55-7,7.09-7h44.26c3.55,0,7.09,3.51,7.09,7v75.41c0,3.49-1.76,5.26-5.31,7h-1.78ZM863.41,286.08l28.32,26.3v-49.09h-28.32v22.79Z"/>
      <path class="cls-1" d="M518.08,813.89H103.69c-3.54,0-7.09-3.51-7.09-7.02v-217.44c0-3.49,3.55-7,7.09-7h414.39c3.54,0,7.08,3.51,7.08,7v215.69c0,5.26-3.55,8.77-7.08,8.77ZM112.54,798.1h396.68v-199.9H112.54v199.9Z"/>
      <path class="cls-1" d="M518.08,598.2H57.64c-3.55,0-5.32-1.75-7.09-3.49-1.76-1.76-1.76-5.27,0-8.77l46.04-68.39c1.77-1.75,3.55-3.51,7.09-3.51h414.39c3.54,0,7.08,3.51,7.08,7.02v68.38c0,5.27-3.55,8.77-7.08,8.77ZM73.58,582.43h435.65v-52.6H109l-35.42,52.6Z"/>
      <path class="cls-1" d="M518.08,529.82h-260.33c-3.55,0-7.08-3.51-7.08-7.02v-70.14c0-3.51,3.54-7,7.08-7h260.33c3.54,0,7.08,3.49,7.08,7v70.14c0,3.51-3.55,7.02-7.08,7.02ZM264.83,514.03h244.39v-54.35h-244.39v54.35Z"/>
      <path class="cls-1" d="M518.08,459.68H213.48c-3.54,0-5.31-1.76-7.08-3.51-1.77-1.75-1.77-5.26,0-8.77l30.1-47.35c1.77-1.75,3.54-3.51,7.08-3.51h212.52c3.54,0,7.08,3.51,7.08,7.02v29.81l37.18-35.07c1.77-1.76,3.55-1.76,5.32-1.76h12.4c3.54,0,7.08,3.51,7.08,7.02v47.35c0,5.26-3.55,8.77-7.08,8.77ZM477.35,443.89h31.88v-29.81l-31.88,29.81ZM229.42,443.89h221.36v-31.56h-201.88l-19.48,31.56Z"/>
      <path class="cls-1" d="M673.91,480.73h-54.9c-3.54,0-7.07-3.51-7.07-7.02v-101.7c0-3.51,3.53-7.02,7.07-7.02h54.9c3.54,0,7.09,3.51,7.09,7.02v101.7c0,3.51-3.55,7.02-7.09,7.02ZM627.87,464.94h38.96v-87.67h-38.96v87.67Z"/>
      <path class="cls-1" d="M815.58,480.73h-143.43c-3.55,0-7.09-3.51-7.09-7.02v-101.7c0-3.51,3.54-7.02,7.09-7.02h143.43c3.54,0,7.09,3.51,7.09,7.02v101.7c1.78,3.51-1.76,7.02-7.09,7.02ZM681,464.94h127.5v-87.67h-127.5v87.67Z"/>
      <path class="cls-1" d="M254.21,813.89h-79.69c-3.55,0-7.09-3.51-7.09-7.02v-154.3c0-3.51,3.54-7.02,7.09-7.02h79.69c3.55,0,7.09,3.51,7.09,7.02v154.3c0,3.51-3.54,7.02-7.09,7.02ZM181.6,798.1h63.75v-138.53h-63.75v138.53Z"/>
      <path class="cls-1" d="M468.49,754.26h-162.92c-3.54,0-7.09-3.51-7.09-7.02v-94.68c0-3.51,3.55-7.02,7.09-7.02h162.92c3.55,0,7.09,3.51,7.09,7.02v92.93c0,5.26-3.54,8.77-7.09,8.77ZM312.65,738.48h146.98v-78.91h-146.98v78.91Z"/>
      <path class="cls-1" d="M468.49,692.89h-139.9c-3.53,0-7.08-3.51-7.08-7.02s3.55-7,7.08-7h139.9c3.55,0,7.09,3.51,7.09,7s-3.54,7.02-7.09,7.02Z"/>
      <path class="cls-1" d="M468.49,719.19h-139.9c-3.53,0-7.08-3.51-7.08-7.02s3.55-7,7.08-7h139.9c3.55,0,7.09,3.51,7.09,7s-3.54,7.02-7.09,7.02Z"/>
      <path class="cls-1" d="M675.68,656.08h-83.22c-3.55,0-7.09-3.51-7.09-7.02v-82.42c0-3.51,3.54-7,7.09-7h83.22c3.54,0,7.09,3.49,7.09,7v82.42c0,3.51-3.55,7.02-7.09,7.02ZM599.54,640.29h67.28v-66.63h-67.28v66.63Z"/>
      <path class="cls-1" d="M758.92,656.08h-83.24c-3.53,0-7.07-3.51-7.07-7.02v-82.42c0-3.51,3.55-7,7.07-7h83.24c3.55,0,7.09,3.49,7.09,7v82.42c1.76,3.51-1.78,7.02-7.09,7.02ZM682.77,640.29h67.3v-66.63h-67.3v66.63Z"/>
      <path class="cls-1" d="M843.92,656.08h-85c-3.54,0-7.09-3.51-7.09-7.02v-82.42c0-3.51,3.55-7,7.09-7h85c3.54,0,7.09,3.49,7.09,7v82.42c0,3.51-3.55,7.02-7.09,7.02ZM767.77,640.29h69.06v-66.63h-69.06v66.63Z"/>
      <path class="cls-1" d="M675.68,738.48h-83.22c-3.55,0-7.09-3.49-7.09-7v-82.42c0-3.51,3.54-7.02,7.09-7.02h83.22c3.54,0,7.09,3.51,7.09,7.02v82.42c0,3.51-3.55,7-7.09,7ZM599.54,722.7h67.28v-66.63h-67.28v66.63Z"/>
      <path class="cls-1" d="M758.92,738.48h-83.24c-3.53,0-7.07-3.49-7.07-7v-82.42c0-3.51,3.55-7.02,7.07-7.02h83.24c3.55,0,7.09,3.51,7.09,7.02v82.42c1.76,3.51-1.78,7-7.09,7ZM682.77,722.7h67.3v-66.63h-67.3v66.63Z"/>
      <path class="cls-1" d="M843.92,738.48h-85c-3.54,0-7.09-3.49-7.09-7v-82.42c0-3.51,3.55-7.02,7.09-7.02h85c3.54,0,7.09,3.51,7.09,7.02v82.42c0,3.51-3.55,7-7.09,7ZM767.77,722.7h69.06v-66.63h-69.06v66.63Z"/>
      <path class="cls-1" d="M957.26,813.89H48.79c-3.55,0-7.09-3.51-7.09-7.02s3.54-7.02,7.09-7.02h908.47c3.55,0,7.09,3.51,7.09,7.02s-1.78,7.02-7.09,7.02Z"/>
      <path class="cls-1" d="M886.42,847.2h-453.35c-3.54,0-7.09-3.51-7.09-7s3.55-7.02,7.09-7.02h453.35c3.55,0,7.09,3.51,7.09,7.02s-3.54,7-7.09,7Z"/>
      <path class="cls-1" d="M238.27,845.45H22.22c-3.54,0-7.08-3.51-7.08-7.02s3.54-7,7.08-7h214.28c3.54,0,7.08,3.49,7.08,7s-1.76,7.02-5.31,7.02Z"/>
      <path class="cls-1" d="M397.65,301.87h-104.48c-14.17,0-26.57-12.28-26.57-26.3,0-12.28,7.09-21.05,19.48-24.56,0-5.26,3.54-10.51,7.09-15.77,3.54-3.51,8.85-5.27,12.4-7.02,3.54-10.51,14.16-15.79,24.79-15.79,1.77,0,5.32,0,7.09,1.76,5.31-5.26,12.4-8.77,21.25-8.77,14.16,0,26.56,10.51,30.1,22.79,15.93,0,30.1,12.28,30.1,29.81v1.75c3.54,5.26,5.32,10.53,5.32,15.79,0,14.02-12.4,26.3-26.57,26.3ZM312.65,242.24c-3.54,0-5.32,1.76-7.08,3.51-1.77,1.75-3.54,5.26-3.54,7.02v1.75c0,1.75,0,5.26-1.77,7.02-1.77,1.75-3.54,3.49-5.31,3.49-5.32,0-10.63,5.27-10.63,10.53s5.31,10.51,10.63,10.51h104.48c5.31,0,10.62-5.26,10.62-10.51,0-3.51-1.77-5.26-3.54-7.02-1.77-1.75-3.54-5.26-1.77-7v-3.51c0-7.02-7.08-14.02-14.16-14.02-1.77,0-3.55,0-5.32,1.75-1.77,1.75-5.31,0-7.08-1.75-1.77-1.76-3.54-5.27-3.54-7.02v-1.75c0-7.02-7.08-14.04-14.17-14.04-5.31,0-8.85,1.76-12.39,7.02-1.77,3.51-7.09,5.26-10.62,1.75-1.77-1.75-3.55-1.75-5.32-1.75-5.32,0-8.85,3.51-10.63,8.77-1.77,3.51-5.31,5.26-8.85,5.26h0Z"/>
    </g>
  </g>
</svg>